<?xml version="1.0" encoding="UTF-8" standalone="no"?>
<!-- Created with Inkscape (http://www.inkscape.org/) -->

<svg
   version="1.1"
   id="svg1"
   width="501.38132"
   height="300.66666"
   viewBox="0 0 501.38132 300.66666"
   sodipodi:docname="logo.svg"
   inkscape:version="1.4.2 (f4327f4, 2025-05-13)"
   xmlns:inkscape="http://www.inkscape.org/namespaces/inkscape"
   xmlns:sodipodi="http://sodipodi.sourceforge.net/DTD/sodipodi-0.dtd"
   xmlns="http://www.w3.org/2000/svg"
   xmlns:svg="http://www.w3.org/2000/svg">
  <defs
     id="defs1">
    <clipPath
       clipPathUnits="userSpaceOnUse"
       id="clipPath3">
      <path
         d="M 0,225.5 H 376.036 V 0 H 0 Z"
         transform="translate(-224.83621,-118.17581)"
         id="path3" />
    </clipPath>
    <clipPath
       clipPathUnits="userSpaceOnUse"
       id="clipPath5">
      <path
         d="M 0,225.5 H 376.036 V 0 H 0 Z"
         transform="translate(-236.5168,-125.1738)"
         id="path5" />
    </clipPath>
    <clipPath
       clipPathUnits="userSpaceOnUse"
       id="clipPath7">
      <path
         d="M 0,225.5 H 376.036 V 0 H 0 Z"
         transform="translate(-251.62431,-131.04341)"
         id="path7" />
    </clipPath>
    <clipPath
       clipPathUnits="userSpaceOnUse"
       id="clipPath9">
      <path
         d="M 0,225.5 H 376.036 V 0 H 0 Z"
         transform="translate(-266.0422,-118.17581)"
         id="path9" />
    </clipPath>
    <clipPath
       clipPathUnits="userSpaceOnUse"
       id="clipPath11">
      <path
         d="M 0,225.5 H 376.036 V 0 H 0 Z"
         transform="translate(-276.99241,-118.0503)"
         id="path11" />
    </clipPath>
    <clipPath
       clipPathUnits="userSpaceOnUse"
       id="clipPath13">
      <path
         d="M 0,225.5 H 376.036 V 0 H 0 Z"
         transform="translate(-208.35081,-109.3545)"
         id="path13" />
    </clipPath>
    <clipPath
       clipPathUnits="userSpaceOnUse"
       id="clipPath15">
      <path
         d="M 0,225.5 H 376.036 V 0 H 0 Z"
         transform="translate(-216.83521,-97.8447)"
         id="path15" />
    </clipPath>
    <clipPath
       clipPathUnits="userSpaceOnUse"
       id="clipPath17">
      <path
         d="M 0,225.5 H 376.036 V 0 H 0 Z"
         transform="translate(-234.84591,-110.69141)"
         id="path17" />
    </clipPath>
    <clipPath
       clipPathUnits="userSpaceOnUse"
       id="clipPath19">
      <path
         d="M 0,225.5 H 376.036 V 0 H 0 Z"
         transform="translate(-241.51291,-97.8447)"
         id="path19" />
    </clipPath>
    <clipPath
       clipPathUnits="userSpaceOnUse"
       id="clipPath21">
      <path
         d="M 0,225.5 H 376.036 V 0 H 0 Z"
         transform="translate(-259.60671,-110.69141)"
         id="path21" />
    </clipPath>
    <clipPath
       clipPathUnits="userSpaceOnUse"
       id="clipPath23">
      <path
         d="M 0,225.5 H 376.036 V 0 H 0 Z"
         transform="translate(-272.0608,-97.719705)"
         id="path23" />
    </clipPath>
    <clipPath
       clipPathUnits="userSpaceOnUse"
       id="clipPath25">
      <path
         d="M 0,225.5 H 376.036 V 0 H 0 Z"
         transform="translate(-280.4407,-97.8447)"
         id="path25" />
    </clipPath>
    <clipPath
       clipPathUnits="userSpaceOnUse"
       id="clipPath27">
      <path
         d="M 0,225.5 H 376.036 V 0 H 0 Z"
         transform="translate(-302.12821,-97.8447)"
         id="path27" />
    </clipPath>
    <clipPath
       clipPathUnits="userSpaceOnUse"
       id="clipPath29">
      <path
         d="M 0,225.5 H 376.036 V 0 H 0 Z"
         transform="translate(-315.58521,-97.8447)"
         id="path29" />
    </clipPath>
    <clipPath
       clipPathUnits="userSpaceOnUse"
       id="clipPath31">
      <path
         d="M 0,225.5 H 376.036 V 0 H 0 Z"
         transform="translate(-208.35081,-89.023402)"
         id="path31" />
    </clipPath>
    <clipPath
       clipPathUnits="userSpaceOnUse"
       id="clipPath33">
      <path
         d="M 0,225.5 H 376.036 V 0 H 0 Z"
         transform="translate(-219.13311,-90.3603)"
         id="path33" />
    </clipPath>
    <clipPath
       clipPathUnits="userSpaceOnUse"
       id="clipPath35">
      <path
         d="M 0,225.5 H 376.036 V 0 H 0 Z"
         transform="translate(-228.57841,-77.513602)"
         id="path35" />
    </clipPath>
    <clipPath
       clipPathUnits="userSpaceOnUse"
       id="clipPath37">
      <path
         d="M 0,225.5 H 376.036 V 0 H 0 Z"
         transform="translate(-249.4504,-77.513602)"
         id="path37" />
    </clipPath>
    <clipPath
       clipPathUnits="userSpaceOnUse"
       id="clipPath39">
      <path
         d="M 0,225.5 H 376.036 V 0 H 0 Z"
         transform="translate(-260.63011,-90.3603)"
         id="path39" />
    </clipPath>
    <clipPath
       clipPathUnits="userSpaceOnUse"
       id="clipPath41">
      <path
         d="M 0,225.5 H 376.036 V 0 H 0 Z"
         transform="translate(-273.89871,-89.566402)"
         id="path41" />
    </clipPath>
    <clipPath
       clipPathUnits="userSpaceOnUse"
       id="clipPath43">
      <path
         d="M 0,225.5 H 376.036 V 0 H 0 Z"
         transform="translate(-286.18581,-84.0732)"
         id="path43" />
    </clipPath>
    <clipPath
       clipPathUnits="userSpaceOnUse"
       id="clipPath44">
      <path
         d="M 71.2747,179.342 H 162.022 V 46.5092 H 71.2747 Z"
         transform="translate(-127.26891,-95.857702)"
         id="path44" />
    </clipPath>
    <clipPath
       clipPathUnits="userSpaceOnUse"
       id="clipPath46">
      <path
         d="M 0,225.5 H 376.036 V 0 H 0 Z"
         transform="matrix(1.3333333,0,0,-1.3333333,0,300.66667)"
         id="path46" />
    </clipPath>
    <clipPath
       clipPathUnits="userSpaceOnUse"
       id="clipPath47">
      <path
         d="M 48.9171,164.426 H 187.761 V 77.4803 H 48.9171 Z"
         transform="translate(-55.378301,-77.480302)"
         id="path47" />
    </clipPath>
    <clipPath
       clipPathUnits="userSpaceOnUse"
       id="clipPath49">
      <path
         d="M 0,225.5 H 376.036 V 0 H 0 Z"
         transform="matrix(1.3333333,0,0,-1.3333333,0,300.66667)"
         id="path49" />
    </clipPath>
    <clipPath
       clipPathUnits="userSpaceOnUse"
       id="clipPath51">
      <path
         d="M 0,225.5 H 376.036 V 0 H 0 Z"
         transform="translate(-161.7039,-55.115901)"
         id="path51" />
    </clipPath>
    <clipPath
       clipPathUnits="userSpaceOnUse"
       id="clipPath52">
      <path
         d="M 46.4093,133.468 H 185.253 V 46.5257 H 46.4093 Z"
         transform="translate(-178.7917,-133.4682)"
         id="path52" />
    </clipPath>
    <clipPath
       clipPathUnits="userSpaceOnUse"
       id="clipPath54">
      <path
         d="M 0,225.5 H 376.036 V 0 H 0 Z"
         transform="matrix(1.3333333,0,0,-1.3333333,0,300.66667)"
         id="path54" />
    </clipPath>
  </defs>
  <sodipodi:namedview
     id="namedview1"
     pagecolor="#ffffff"
     bordercolor="#000000"
     borderopacity="0.25"
     inkscape:showpageshadow="2"
     inkscape:pageopacity="0.0"
     inkscape:pagecheckerboard="0"
     inkscape:deskcolor="#d1d1d1"
     inkscape:zoom="1.8978998"
     inkscape:cx="227.62003"
     inkscape:cy="159.91361"
     inkscape:window-width="1920"
     inkscape:window-height="1009"
     inkscape:window-x="-8"
     inkscape:window-y="-8"
     inkscape:window-maximized="1"
     inkscape:current-layer="layer-MC0">
    <inkscape:page
       x="0"
       y="0"
       inkscape:label="1"
       id="page1"
       width="501.38132"
       height="300.66666"
       margin="62.012268 77.118668 61.543999 61.879066"
       bleed="0" />
  </sodipodi:namedview>
  <g
     id="layer-MC0"
     inkscape:groupmode="layer"
     inkscape:label="Layer 1">
    <g
       id="g53"
       clip-path="url(#clipPath54)">
      <path
         d="m 0,0 -125.927,-0.059 c -2.798,-0.001 -5.277,-1.803 -6.14,-4.465 -0.863,-2.661 0.085,-5.576 2.349,-7.219 l 100.383,-72.86 c 1.279,-1.596 3.139,-2.303 5.085,-2.338 0.114,-0.004 0.227,0.002 0.34,0.003 0.896,0.02 1.803,0.164 2.676,0.448 3.392,1.102 5.249,4.745 4.146,8.138 l -0.204,0.626 -0.002,0.001 c -0.295,1.088 -0.898,2.127 -1.891,3.028 l -21.124,18.732 11.849,40.785 28.972,1.2 c 4.034,0.446 5.952,3.956 5.949,7.525 C 6.459,-2.888 3.567,0.002 0,0"
         style="mix-blend-mode:multiply;fill:#00adef;fill-opacity:1;fill-rule:nonzero;stroke:none"
         transform="matrix(1.3333333,0,0,-1.3333333,238.38893,122.70907)"
         clip-path="url(#clipPath52)"
         id="path53"
         sodipodi:nodetypes="ccccccccccccccccc" />
    </g>
    <path
       id="path1"
       d="m 0,0 -2.34,-6.601 h 4.617 z m 3.927,-11.51 -1.044,2.988 h -5.87 L -4.031,-11.51 H -6.413 L -0.961,3.363 H 0.856 L 6.288,-11.51 Z"
       style="fill:#656263;fill-opacity:1;fill-rule:nonzero;stroke:none"
       transform="matrix(1.3333333,0,0,-1.3333333,277.80107,127.75267)" />
    <path
       id="path2"
       d="m 0,0 v 12.847 h -4.282 v -4.7 C -4.282,1.901 -5.786,0 -8.773,0 h -0.941 v 2.026 h 0.398 c 1.65,0 2.84,1.045 2.84,6.434 v 6.413 H 2.256 L 2.256,0 Z"
       style="fill:#656263;fill-opacity:1;fill-rule:nonzero;stroke:none"
       transform="matrix(1.3333333,0,0,-1.3333333,299.7816,143.09893)"
       clip-path="url(#clipPath3)" />
    <path
       id="path4"
       d="M 0,0 H -3.258 V -4.972 H 0 c 1.65,0 2.633,0.94 2.633,2.486 C 2.633,-0.961 1.65,0 0,0 M 0.188,-6.998 H -5.515 V 7.875 h 2.257 V 2.026 h 3.446 c 2.841,0 4.721,-1.838 4.721,-4.512 0,-2.674 -1.9,-4.512 -4.721,-4.512"
       style="fill:#656263;fill-opacity:1;fill-rule:nonzero;stroke:none"
       transform="matrix(1.3333333,0,0,-1.3333333,315.35573,133.76827)"
       clip-path="url(#clipPath5)" />
    <path
       id="path6"
       d="m 0,0 h -3.237 c -1.63,0 -2.633,-0.94 -2.633,-2.486 0,-1.525 1.003,-2.506 2.633,-2.506 H 0 Z m -5.828,-12.868 h -2.674 l 3.238,6.267 c -1.755,0.606 -2.862,2.089 -2.862,4.095 0,2.757 1.922,4.511 4.742,4.511 H 2.277 V -12.868 H 0 v 5.849 h -2.945 z"
       style="fill:#656263;fill-opacity:1;fill-rule:nonzero;stroke:none"
       transform="matrix(1.3333333,0,0,-1.3333333,335.49907,125.94213)"
       clip-path="url(#clipPath7)" />
    <path
       id="path8"
       d="M 0,0 V 6.497 H -6.016 V 0 h -2.256 v 14.873 h 2.256 V 8.502 H 0 v 6.371 H 2.277 V 0 Z"
       style="fill:#656263;fill-opacity:1;fill-rule:nonzero;stroke:none"
       transform="matrix(1.3333333,0,0,-1.3333333,354.72293,143.09893)"
       clip-path="url(#clipPath9)" />
    <path
       id="path10"
       d="M 0,0 C -1.546,0 -2.883,0.564 -3.906,1.588 -5.368,3.05 -5.348,4.7 -5.348,7.562 c 0,2.862 -0.02,4.512 1.442,5.975 1.023,1.023 2.36,1.587 3.906,1.587 2.736,0 4.784,-1.608 5.306,-4.575 H 3.008 C 2.653,12.053 1.65,13.098 0,13.098 c -0.877,0 -1.671,-0.334 -2.193,-0.898 -0.732,-0.794 -0.899,-1.651 -0.899,-4.638 0,-2.987 0.167,-3.844 0.899,-4.637 C -1.671,2.361 -0.877,2.026 0,2.026 c 1.65,0 2.674,1.045 3.029,2.549 H 5.306 C 4.805,1.608 2.695,0 0,0"
       style="fill:#656263;fill-opacity:1;fill-rule:nonzero;stroke:none"
       transform="matrix(1.3333333,0,0,-1.3333333,369.3232,143.26627)"
       clip-path="url(#clipPath11)" />
    <path
       id="path12"
       d="m 0,0 -2.34,-6.601 h 4.617 z m 3.927,-11.51 -1.044,2.988 h -5.87 L -4.031,-11.51 H -6.413 L -0.961,3.363 H 0.856 L 6.288,-11.51 Z"
       style="fill:#656263;fill-opacity:1;fill-rule:nonzero;stroke:none"
       transform="matrix(1.3333333,0,0,-1.3333333,277.80107,154.86067)"
       clip-path="url(#clipPath13)" />
    <path
       id="path14"
       d="M 0,0 V 14.873 H 2.257 V 7.812 l 5.556,7.061 h 2.779 L 4.868,7.854 11.113,0 H 8.252 L 2.257,7.771 V 0 Z"
       style="fill:#656263;fill-opacity:1;fill-rule:nonzero;stroke:none"
       transform="matrix(1.3333333,0,0,-1.3333333,289.1136,170.20707)"
       clip-path="url(#clipPath15)" />
    <path
       id="path16"
       d="M 0,0 V -12.847 H -2.256 V 0 H -6.35 V 2.026 H 4.095 L 4.095,0 Z"
       style="fill:#656263;fill-opacity:1;fill-rule:nonzero;stroke:none"
       transform="matrix(1.3333333,0,0,-1.3333333,313.12787,153.07813)"
       clip-path="url(#clipPath17)" />
    <path
       id="path18"
       d="M 0,0 V 14.873 H 9.525 V 12.847 H 2.257 V 8.502 H 8.439 V 6.497 H 2.257 V 2.026 H 9.525 L 9.525,0 Z"
       style="fill:#656263;fill-opacity:1;fill-rule:nonzero;stroke:none"
       transform="matrix(1.3333333,0,0,-1.3333333,322.0172,170.20707)"
       clip-path="url(#clipPath19)" />
    <path
       id="path20"
       d="M 0,0 H -3.237 V -4.971 H 0 c 1.63,0 2.653,0.96 2.653,2.486 C 2.653,-0.94 1.63,0 0,0 m 0.146,-6.998 h -3.383 v -5.849 H -5.494 V 2.026 h 5.64 c 2.821,0 4.763,-1.838 4.763,-4.511 0,-2.674 -1.942,-4.513 -4.763,-4.513"
       style="fill:#656263;fill-opacity:1;fill-rule:nonzero;stroke:none"
       transform="matrix(1.3333333,0,0,-1.3333333,346.14227,153.07813)"
       clip-path="url(#clipPath21)" />
    <path
       id="path22"
       d="M 0,0 C -1.546,0 -2.883,0.563 -3.906,1.587 -5.368,3.05 -5.348,4.7 -5.348,7.562 c 0,2.861 -0.02,4.512 1.442,5.974 1.023,1.024 2.36,1.588 3.906,1.588 2.736,0 4.784,-1.609 5.306,-4.575 H 3.008 C 2.653,12.053 1.65,13.097 0,13.097 c -0.877,0 -1.671,-0.334 -2.193,-0.898 -0.732,-0.794 -0.899,-1.65 -0.899,-4.637 0,-2.988 0.167,-3.844 0.899,-4.638 C -1.671,2.36 -0.877,2.026 0,2.026 c 1.65,0 2.674,1.044 3.029,2.548 H 5.306 C 4.805,1.608 2.695,0 0,0"
       style="fill:#656263;fill-opacity:1;fill-rule:nonzero;stroke:none"
       transform="matrix(1.3333333,0,0,-1.3333333,362.74773,170.37373)"
       clip-path="url(#clipPath23)" />
    <path
       id="path24"
       d="M 0,0 V 14.873 H 2.257 V 7.812 l 5.556,7.061 h 2.779 L 4.868,7.854 11.113,0 H 8.252 L 2.257,7.771 V 0 Z"
       style="fill:#656263;fill-opacity:1;fill-rule:nonzero;stroke:none"
       transform="matrix(1.3333333,0,0,-1.3333333,373.92093,170.20707)"
       clip-path="url(#clipPath25)" />
    <path
       id="path26"
       d="M 0,0 V 10.8 L -6.663,0 h -2.048 v 14.873 h 2.257 V 4.095 L 0.188,14.873 H 2.256 V 0 Z"
       style="fill:#656263;fill-opacity:1;fill-rule:nonzero;stroke:none"
       transform="matrix(1.3333333,0,0,-1.3333333,402.8376,170.20707)"
       clip-path="url(#clipPath27)" />
    <path
       id="path28"
       d="M 0,0 -3.238,5.703 -6.476,0 h -2.569 l 4.574,7.625 -4.282,7.248 h 2.591 l 2.924,-5.327 2.946,5.327 h 2.59 L -2.005,7.625 2.611,0 Z"
       style="fill:#656263;fill-opacity:1;fill-rule:nonzero;stroke:none"
       transform="matrix(1.3333333,0,0,-1.3333333,420.78027,170.20707)"
       clip-path="url(#clipPath29)" />
    <path
       id="path30"
       d="m 0,0 -2.34,-6.601 h 4.617 z m 3.927,-11.51 -1.044,2.988 h -5.87 L -4.031,-11.51 H -6.413 L -0.961,3.363 H 0.856 L 6.288,-11.51 Z"
       style="fill:#656263;fill-opacity:1;fill-rule:nonzero;stroke:none"
       transform="matrix(1.3333333,0,0,-1.3333333,277.80107,181.9688)"
       clip-path="url(#clipPath31)" />
    <path
       id="path32"
       d="M 0,0 V -12.847 H -2.256 V 2.026 h 9.15 V 0 Z"
       style="fill:#656263;fill-opacity:1;fill-rule:nonzero;stroke:none"
       transform="matrix(1.3333333,0,0,-1.3333333,292.17747,180.18627)"
       clip-path="url(#clipPath33)" />
    <path
       id="path34"
       d="M 0,0 V 14.873 H 9.525 V 12.847 H 2.257 V 8.502 H 8.439 V 6.496 H 2.257 V 2.026 H 9.525 L 9.525,0 Z"
       style="fill:#656263;fill-opacity:1;fill-rule:nonzero;stroke:none"
       transform="matrix(1.3333333,0,0,-1.3333333,304.7712,197.3152)"
       clip-path="url(#clipPath35)" />
    <path
       id="path36"
       d="M 0,0 V 6.496 H -6.016 V 0 h -2.256 v 14.873 h 2.256 V 8.502 H 0 v 6.371 H 2.277 V 0 Z"
       style="fill:#656263;fill-opacity:1;fill-rule:nonzero;stroke:none"
       transform="matrix(1.3333333,0,0,-1.3333333,332.60053,197.3152)"
       clip-path="url(#clipPath37)" />
    <path
       id="path38"
       d="M 0,0 V -12.847 H -2.256 V 0 H -6.35 V 2.026 H 4.095 L 4.095,0 Z"
       style="fill:#656263;fill-opacity:1;fill-rule:nonzero;stroke:none"
       transform="matrix(1.3333333,0,0,-1.3333333,347.5068,180.18627)"
       clip-path="url(#clipPath39)" />
    <path
       id="path40"
       d="M 0,0 C -0.585,0.606 -1.358,0.92 -2.215,0.92 -3.05,0.92 -3.844,0.606 -4.429,0 -5.265,-0.877 -5.285,-2.339 -5.285,-4.24 v -1.275 c 0,-1.524 0.062,-2.923 0.856,-3.717 0.606,-0.607 1.358,-0.919 2.214,-0.919 0.878,0 1.651,0.312 2.215,0.919 0.877,0.919 0.877,2.235 0.877,4.762 C 0.877,-2.214 0.835,-0.877 0,0 m 3.154,-4.825 c 0,-2.445 -0.021,-4.303 -1.441,-5.766 -1.025,-1.044 -2.361,-1.587 -3.928,-1.587 -1.546,0 -2.883,0.543 -3.906,1.587 -1.42,1.442 -1.441,3.468 -1.441,5.683 v 0.981 c 0,2.445 0.188,4.031 1.441,5.285 1.023,1.024 2.382,1.587 3.906,1.587 1.546,0 2.903,-0.563 3.928,-1.587 1.148,-1.17 1.441,-2.82 1.441,-4.929 z"
       style="fill:#656263;fill-opacity:1;fill-rule:nonzero;stroke:none"
       transform="matrix(1.3333333,0,0,-1.3333333,365.19827,181.2448)"
       clip-path="url(#clipPath41)" />
    <path
       id="path42"
       d="M 0,0 H -3.53 V -4.533 H 0 c 1.504,0 2.443,0.877 2.443,2.276 C 2.443,-0.878 1.504,0 0,0 M -0.188,6.287 H -3.53 V 2.026 h 3.342 c 1.503,0 2.422,0.793 2.422,2.13 0,1.337 -0.919,2.131 -2.422,2.131 M 0.229,-6.56 H -5.787 V 8.313 H 0 c 2.715,0 4.491,-1.587 4.491,-4.01 0,-1.504 -0.689,-2.59 -2.006,-3.238 1.462,-0.689 2.236,-1.754 2.236,-3.447 0,-2.569 -1.713,-4.178 -4.492,-4.178"
       style="fill:#656263;fill-opacity:1;fill-rule:nonzero;stroke:none"
       transform="matrix(1.3333333,0,0,-1.3333333,381.58107,188.56907)"
       clip-path="url(#clipPath43)" />
    <g
       id="g45"
       clip-path="url(#clipPath46)"
       style="mix-blend-mode:multiply">
      <path
         d="m 0,0 c -0.446,-0.145 -5.575,-0.164 -10.621,-0.148 -5.045,-0.016 -10.174,0.003 -10.62,0.148 -0.881,0.286 -1.363,1.232 -1.077,2.113 l 10.103,31.092 c 0.224,0.691 0.868,1.159 1.594,1.159 0.727,0 1.371,-0.468 1.595,-1.159 L 1.076,2.113 C 1.363,1.232 0.881,0.286 0,0 M 34.435,-40.742 -4.479,79.022 c -0.864,2.661 -3.344,4.462 -6.142,4.462 -2.798,0 -5.277,-1.801 -6.142,-4.462 L -55.676,-40.742 c -1.103,-3.392 0.754,-7.035 4.146,-8.138 3.394,-1.103 7.325,-0.362 8.994,3.337 l 10.081,27.188 h 21.834 21.835 l 10.081,-27.188 c 1.669,-3.699 5.6,-4.44 8.994,-3.337 3.392,1.103 5.248,4.746 4.146,8.138"
         style="mix-blend-mode:multiply;fill:#ed1c24;fill-opacity:1;fill-rule:nonzero;stroke:none"
         transform="matrix(1.3333333,0,0,-1.3333333,169.69187,172.8564)"
         clip-path="url(#clipPath44)"
         id="path45"
         sodipodi:nodetypes="cccccscccccscccccccccc" />
    </g>
    <g
       id="g48"
       clip-path="url(#clipPath49)"
       style="mix-blend-mode:multiply">
      <path
         d="m 0,0 125.927,0.059 c 2.798,0.001 5.277,1.804 6.14,4.465 0.863,2.661 -0.085,5.576 -2.35,7.219 L 27.806,85.714 c -2.887,2.095 -6.925,1.453 -9.02,-1.433 -2.098,-2.888 -2.605,-6.855 0.398,-9.584 L 41.935,56.718 35.197,35.949 28.46,15.18 -0.512,13.98 C -4.546,13.534 -6.464,10.024 -6.461,6.455 -6.46,2.888 -3.567,-0.002 0,0"
         style="mix-blend-mode:multiply;fill:#bdbcbc;fill-opacity:1;fill-rule:nonzero;stroke:none"
         transform="matrix(1.3333333,0,0,-1.3333333,73.837733,197.3596)"
         clip-path="url(#clipPath47)"
         id="path48"
         sodipodi:nodetypes="ccscccccccccc" />
    </g>
    <path
       id="path50"
       d="m 0,0 -0.204,0.627 -1.197,0.073 -10.413,-6.365 -0.449,-0.57 c 1.939,-2.436 5.221,-2.845 8.117,-1.903 C -0.754,-7.036 1.103,-3.392 0,0"
       style="mix-blend-mode:multiply;fill:#ed1c24;fill-opacity:1;fill-rule:nonzero;stroke:none"
       transform="matrix(1.3333333,0,0,-1.3333333,215.6052,227.1788)"
       clip-path="url(#clipPath51)" />
  </g>
</svg>
