<?xml version="1.0" encoding="UTF-8" standalone="no"?>
<!-- Created with Inkscape (http://www.inkscape.org/) -->

<svg
   version="1.1"
   id="svg1"
   width="327.46634"
   height="300.6662"
   viewBox="0 0 218.31089 200.44413"
   sodipodi:docname="logo_small.svg"
   inkscape:version="1.4.2 (f4327f4, 2025-05-13)"
   xmlns:inkscape="http://www.inkscape.org/namespaces/inkscape"
   xmlns:sodipodi="http://sodipodi.sourceforge.net/DTD/sodipodi-0.dtd"
   xmlns="http://www.w3.org/2000/svg"
   xmlns:svg="http://www.w3.org/2000/svg">
  <defs
     id="defs1">
    <clipPath
       clipPathUnits="userSpaceOnUse"
       id="clipPath3">
      <path
         d="M 0,225.5 H 376.036 V 0 H 0 Z"
         transform="translate(-224.83621,-118.17581)"
         id="path3" />
    </clipPath>
    <clipPath
       clipPathUnits="userSpaceOnUse"
       id="clipPath5">
      <path
         d="M 0,225.5 H 376.036 V 0 H 0 Z"
         transform="translate(-236.5168,-125.1738)"
         id="path5" />
    </clipPath>
    <clipPath
       clipPathUnits="userSpaceOnUse"
       id="clipPath7">
      <path
         d="M 0,225.5 H 376.036 V 0 H 0 Z"
         transform="translate(-251.62431,-131.04341)"
         id="path7" />
    </clipPath>
    <clipPath
       clipPathUnits="userSpaceOnUse"
       id="clipPath9">
      <path
         d="M 0,225.5 H 376.036 V 0 H 0 Z"
         transform="translate(-266.0422,-118.17581)"
         id="path9" />
    </clipPath>
    <clipPath
       clipPathUnits="userSpaceOnUse"
       id="clipPath11">
      <path
         d="M 0,225.5 H 376.036 V 0 H 0 Z"
         transform="translate(-276.99241,-118.0503)"
         id="path11" />
    </clipPath>
    <clipPath
       clipPathUnits="userSpaceOnUse"
       id="clipPath13">
      <path
         d="M 0,225.5 H 376.036 V 0 H 0 Z"
         transform="translate(-208.35081,-109.3545)"
         id="path13" />
    </clipPath>
    <clipPath
       clipPathUnits="userSpaceOnUse"
       id="clipPath15">
      <path
         d="M 0,225.5 H 376.036 V 0 H 0 Z"
         transform="translate(-216.83521,-97.8447)"
         id="path15" />
    </clipPath>
    <clipPath
       clipPathUnits="userSpaceOnUse"
       id="clipPath17">
      <path
         d="M 0,225.5 H 376.036 V 0 H 0 Z"
         transform="translate(-234.84591,-110.69141)"
         id="path17" />
    </clipPath>
    <clipPath
       clipPathUnits="userSpaceOnUse"
       id="clipPath19">
      <path
         d="M 0,225.5 H 376.036 V 0 H 0 Z"
         transform="translate(-241.51291,-97.8447)"
         id="path19" />
    </clipPath>
    <clipPath
       clipPathUnits="userSpaceOnUse"
       id="clipPath21">
      <path
         d="M 0,225.5 H 376.036 V 0 H 0 Z"
         transform="translate(-259.60671,-110.69141)"
         id="path21" />
    </clipPath>
    <clipPath
       clipPathUnits="userSpaceOnUse"
       id="clipPath23">
      <path
         d="M 0,225.5 H 376.036 V 0 H 0 Z"
         transform="translate(-272.0608,-97.719705)"
         id="path23" />
    </clipPath>
    <clipPath
       clipPathUnits="userSpaceOnUse"
       id="clipPath25">
      <path
         d="M 0,225.5 H 376.036 V 0 H 0 Z"
         transform="translate(-280.4407,-97.8447)"
         id="path25" />
    </clipPath>
    <clipPath
       clipPathUnits="userSpaceOnUse"
       id="clipPath27">
      <path
         d="M 0,225.5 H 376.036 V 0 H 0 Z"
         transform="translate(-302.12821,-97.8447)"
         id="path27" />
    </clipPath>
    <clipPath
       clipPathUnits="userSpaceOnUse"
       id="clipPath29">
      <path
         d="M 0,225.5 H 376.036 V 0 H 0 Z"
         transform="translate(-315.58521,-97.8447)"
         id="path29" />
    </clipPath>
    <clipPath
       clipPathUnits="userSpaceOnUse"
       id="clipPath31">
      <path
         d="M 0,225.5 H 376.036 V 0 H 0 Z"
         transform="translate(-208.35081,-89.023402)"
         id="path31" />
    </clipPath>
    <clipPath
       clipPathUnits="userSpaceOnUse"
       id="clipPath33">
      <path
         d="M 0,225.5 H 376.036 V 0 H 0 Z"
         transform="translate(-219.13311,-90.3603)"
         id="path33" />
    </clipPath>
    <clipPath
       clipPathUnits="userSpaceOnUse"
       id="clipPath35">
      <path
         d="M 0,225.5 H 376.036 V 0 H 0 Z"
         transform="translate(-228.57841,-77.513602)"
         id="path35" />
    </clipPath>
    <clipPath
       clipPathUnits="userSpaceOnUse"
       id="clipPath37">
      <path
         d="M 0,225.5 H 376.036 V 0 H 0 Z"
         transform="translate(-249.4504,-77.513602)"
         id="path37" />
    </clipPath>
    <clipPath
       clipPathUnits="userSpaceOnUse"
       id="clipPath39">
      <path
         d="M 0,225.5 H 376.036 V 0 H 0 Z"
         transform="translate(-260.63011,-90.3603)"
         id="path39" />
    </clipPath>
    <clipPath
       clipPathUnits="userSpaceOnUse"
       id="clipPath41">
      <path
         d="M 0,225.5 H 376.036 V 0 H 0 Z"
         transform="translate(-273.89871,-89.566402)"
         id="path41" />
    </clipPath>
    <clipPath
       clipPathUnits="userSpaceOnUse"
       id="clipPath43">
      <path
         d="M 0,225.5 H 376.036 V 0 H 0 Z"
         transform="translate(-286.18581,-84.0732)"
         id="path43" />
    </clipPath>
    <clipPath
       clipPathUnits="userSpaceOnUse"
       id="clipPath44">
      <path
         d="M 71.2747,179.342 H 162.022 V 46.5092 H 71.2747 Z"
         transform="translate(-127.26891,-95.857702)"
         id="path44" />
    </clipPath>
    <clipPath
       clipPathUnits="userSpaceOnUse"
       id="clipPath46">
      <path
         d="M 0,225.5 H 376.036 V 0 H 0 Z"
         transform="matrix(1.3333333,0,0,-1.3333333,0,300.66667)"
         id="path46" />
    </clipPath>
    <clipPath
       clipPathUnits="userSpaceOnUse"
       id="clipPath47">
      <path
         d="M 48.9171,164.426 H 187.761 V 77.4803 H 48.9171 Z"
         transform="translate(-55.378301,-77.480302)"
         id="path47" />
    </clipPath>
    <clipPath
       clipPathUnits="userSpaceOnUse"
       id="clipPath49">
      <path
         d="M 0,225.5 H 376.036 V 0 H 0 Z"
         transform="matrix(1.3333333,0,0,-1.3333333,0,300.66667)"
         id="path49" />
    </clipPath>
    <clipPath
       clipPathUnits="userSpaceOnUse"
       id="clipPath51">
      <path
         d="M 0,225.5 H 376.036 V 0 H 0 Z"
         transform="translate(-161.7039,-55.115901)"
         id="path51" />
    </clipPath>
    <clipPath
       clipPathUnits="userSpaceOnUse"
       id="clipPath52">
      <path
         d="M 46.4093,133.468 H 185.253 V 46.5257 H 46.4093 Z"
         transform="translate(-178.7917,-133.4682)"
         id="path52" />
    </clipPath>
    <clipPath
       clipPathUnits="userSpaceOnUse"
       id="clipPath54">
      <path
         d="M 0,225.5 H 376.036 V 0 H 0 Z"
         transform="matrix(1.3333333,0,0,-1.3333333,0,300.66667)"
         id="path54" />
    </clipPath>
  </defs>
  <sodipodi:namedview
     id="namedview1"
     pagecolor="#ffffff"
     bordercolor="#000000"
     borderopacity="0.25"
     inkscape:showpageshadow="2"
     inkscape:pageopacity="0.0"
     inkscape:pagecheckerboard="0"
     inkscape:deskcolor="#d1d1d1"
     inkscape:zoom="1.8978998"
     inkscape:cx="329.83828"
     inkscape:cy="186.78542"
     inkscape:window-width="1920"
     inkscape:window-height="1009"
     inkscape:window-x="-8"
     inkscape:window-y="-8"
     inkscape:window-maximized="1"
     inkscape:current-layer="layer-MC0">
    <inkscape:page
       x="0"
       y="0"
       inkscape:label="1"
       id="page1"
       width="218.31088"
       height="200.44414"
       margin="62.012268 77.118668 61.543999 61.879066"
       bleed="0" />
  </sodipodi:namedview>
  <g
     id="layer-MC0"
     inkscape:groupmode="layer"
     inkscape:label="Layer 1"
     transform="translate(28.452504,33.662451)">
    <g
       id="g53"
       clip-path="url(#clipPath54)"
       transform="translate(-77.629671,-84.830612)">
      <path
         d="m 0,0 -125.927,-0.059 c -2.798,-0.001 -5.277,-1.803 -6.14,-4.465 -0.863,-2.661 0.085,-5.576 2.349,-7.219 l 100.383,-72.86 c 1.279,-1.596 3.139,-2.303 5.085,-2.338 0.114,-0.004 0.227,0.002 0.34,0.003 0.896,0.02 1.803,0.164 2.676,0.448 3.392,1.102 5.249,4.745 4.146,8.138 l -0.204,0.626 -0.002,0.001 c -0.295,1.088 -0.898,2.127 -1.891,3.028 l -21.124,18.732 11.849,40.785 28.972,1.2 c 4.034,0.446 5.952,3.956 5.949,7.525 C 6.459,-2.888 3.567,0.002 0,0"
         style="mix-blend-mode:multiply;fill:#00adef;fill-opacity:1;fill-rule:nonzero;stroke:none"
         transform="matrix(1.3333333,0,0,-1.3333333,238.38893,122.70907)"
         clip-path="url(#clipPath52)"
         id="path53"
         sodipodi:nodetypes="ccccccccccccccccc" />
    </g>
    <g
       id="g45"
       clip-path="url(#clipPath46)"
       style="mix-blend-mode:multiply"
       transform="translate(-77.629671,-84.830612)">
      <path
         d="m 0,0 c -0.446,-0.145 -5.575,-0.164 -10.621,-0.148 -5.045,-0.016 -10.174,0.003 -10.62,0.148 -0.881,0.286 -1.363,1.232 -1.077,2.113 l 10.103,31.092 c 0.224,0.691 0.868,1.159 1.594,1.159 0.727,0 1.371,-0.468 1.595,-1.159 L 1.076,2.113 C 1.363,1.232 0.881,0.286 0,0 M 34.435,-40.742 -4.479,79.022 c -0.864,2.661 -3.344,4.462 -6.142,4.462 -2.798,0 -5.277,-1.801 -6.142,-4.462 L -55.676,-40.742 c -1.103,-3.392 0.754,-7.035 4.146,-8.138 3.394,-1.103 7.325,-0.362 8.994,3.337 l 10.081,27.188 h 21.834 21.835 l 10.081,-27.188 c 1.669,-3.699 5.6,-4.44 8.994,-3.337 3.392,1.103 5.248,4.746 4.146,8.138"
         style="mix-blend-mode:multiply;fill:#ed1c24;fill-opacity:1;fill-rule:nonzero;stroke:none"
         transform="matrix(1.3333333,0,0,-1.3333333,169.69187,172.8564)"
         clip-path="url(#clipPath44)"
         id="path45"
         sodipodi:nodetypes="cccccscccccscccccccccc" />
    </g>
    <g
       id="g48"
       clip-path="url(#clipPath49)"
       style="mix-blend-mode:multiply"
       transform="translate(-77.629671,-84.830612)">
      <path
         d="m 0,0 125.927,0.059 c 2.798,0.001 5.277,1.804 6.14,4.465 0.863,2.661 -0.085,5.576 -2.35,7.219 L 27.806,85.714 c -2.887,2.095 -6.925,1.453 -9.02,-1.433 -2.098,-2.888 -2.605,-6.855 0.398,-9.584 L 41.935,56.718 35.197,35.949 28.46,15.18 -0.512,13.98 C -4.546,13.534 -6.464,10.024 -6.461,6.455 -6.46,2.888 -3.567,-0.002 0,0"
         style="mix-blend-mode:multiply;fill:#bdbcbc;fill-opacity:1;fill-rule:nonzero;stroke:none"
         transform="matrix(1.3333333,0,0,-1.3333333,73.837733,197.3596)"
         clip-path="url(#clipPath47)"
         id="path48"
         sodipodi:nodetypes="ccscccccccccc" />
    </g>
    <path
       id="path50"
       d="m 0,0 -0.204,0.627 -1.197,0.073 -10.413,-6.365 -0.449,-0.57 c 1.939,-2.436 5.221,-2.845 8.117,-1.903 C -0.754,-7.036 1.103,-3.392 0,0"
       style="mix-blend-mode:multiply;fill:#ed1c24;fill-opacity:1;fill-rule:nonzero;stroke:none"
       transform="matrix(1.3333333,0,0,-1.3333333,137.97553,142.34819)"
       clip-path="url(#clipPath51)" />
  </g>
</svg>
